<svg xmlns="http://www.w3.org/2000/svg" xmlns:xlink="http://www.w3.org/1999/xlink" version="1.1" width="1000" height="1000" viewBox="0 0 1000 1000" xml:space="preserve">
<desc>Created with Fabric.js 3.5.0</desc>
<defs>
</defs>
<rect x="0" y="0" width="100%" height="100%" fill="#ffffff"/>
<g transform="matrix(3.1131 0 0 3.1131 500.0017 500.0017)" id="572146">
<g style="" vector-effect="non-scaling-stroke">
		<g transform="matrix(1 0 0 1 -104.516 17.709)" id="Capa_1">
<path style="stroke: none; stroke-width: 1; stroke-dasharray: none; stroke-linecap: butt; stroke-dashoffset: 0; stroke-linejoin: miter; stroke-miterlimit: 4; is-custom-font: none; font-file-url: none; fill: rgb(0,0,0); fill-rule: nonzero; opacity: 1;" transform=" translate(-43.816, -166.041)" d="M 58.355 226.748 V 69.414 c 0 -1.709 0.294 -3.391 0.526 -5.039 L 13.778 79.057 C 3.316 82.455 -2.42 93.797 0.979 104.258 l 48.639 149.633 c 2.738 8.428 10.639 13.816 19.075 13.816 c 2.035 0 4.109 -0.315 6.143 -0.975 l 12.796 -4.211 C 71.066 259.213 58.355 244.242 58.355 226.748 z" stroke-linecap="round"/>
</g>
		<g transform="matrix(1 0 0 1 -25.638 -119.25)" id="Capa_1">
<polyline style="stroke: rgb(255,255,255); stroke-width: 0; stroke-dasharray: none; stroke-linecap: round; stroke-dashoffset: 0; stroke-linejoin: round; stroke-miterlimit: 4; is-custom-font: none; font-file-url: none; fill: none; fill-rule: nonzero; opacity: 1;" points="-0.006,-0.125 -0.006,0.125 0.006,0.125 "/>
</g>
		<g transform="matrix(1 0 0 1 -40.424 -0.001)" id="Capa_1">
<path style="stroke: none; stroke-width: 1; stroke-dasharray: none; stroke-linecap: butt; stroke-dashoffset: 0; stroke-linejoin: miter; stroke-miterlimit: 4; is-custom-font: none; font-file-url: none; fill: rgb(0,0,0); fill-rule: nonzero; opacity: 1;" transform=" translate(-107.908, -148.331)" d="M 91.098 203.275 l 48.617 -149.602 c 0.491 -1.512 1.078 -3.342 1.746 -4.342 H 94.688 c -11 0 -20.333 9.082 -20.333 20.082 v 157.334 c 0 11 9.333 20.584 20.333 20.584 h 15.969 C 94.061 239.332 85.361 220.932 91.098 203.275 z" stroke-linecap="round"/>
</g>
		<g transform="matrix(1 0 0 1 52.67 7.876)" id="Capa_1">
<path style="stroke: none; stroke-width: 1; stroke-dasharray: none; stroke-linecap: butt; stroke-dashoffset: 0; stroke-linejoin: miter; stroke-miterlimit: 4; is-custom-font: none; font-file-url: none; fill: rgb(0,0,0); fill-rule: nonzero; opacity: 1;" transform=" translate(-201.002, -156.208)" d="M 282.848 79.057 L 180.134 45.684 c -2.034 -0.662 -4.102 -0.975 -6.138 -0.975 c -8.436 0 -16.326 5.387 -19.064 13.814 l -48.617 149.633 c -3.399 10.463 2.379 21.803 12.841 25.203 l 102.713 33.373 c 2.034 0.66 4.102 0.975 6.138 0.975 c 8.436 0 16.326 -5.389 19.064 -13.816 l 48.618 -149.633 C 299.088 93.797 293.31 82.455 282.848 79.057 z M 186.839 196.049 c -48.438 -58.818 -20.22 -88.049 -2.361 -87.969 c 15.049 0.072 21.176 10.863 23.789 21.967 c 8.049 -8.84 19.938 -12.586 32.156 -3.801 C 254.922 136.67 260.59 176.898 186.839 196.049 z" stroke-linecap="round"/>
</g>
</g>
</g>
<g transform="matrix(5.4369 0 0 5.7099 665.9024 517.7272)" id="244120">
<path style="stroke: none; stroke-width: 1; stroke-dasharray: none; stroke-linecap: butt; stroke-dashoffset: 0; stroke-linejoin: miter; stroke-miterlimit: 4; is-custom-font: none; font-file-url: none; fill: rgb(0,0,0); fill-rule: nonzero; opacity: 1;" vector-effect="non-scaling-stroke" transform=" translate(-30, -30)" d="M 49.001 0 H 10.999 C 4.934 0 0 4.934 0 10.999 v 38.003 C 0 55.066 4.934 60 10.999 60 h 38.002 C 55.065 60 60 55.066 60 49.001 V 10.999 C 60 4.934 55.065 0 49.001 0 z" stroke-linecap="round"/>
</g>
<g transform="matrix(0.7311 0 0 0.7311 661.3261 517.7266)" id="61722">
<g style="" vector-effect="non-scaling-stroke">
		<g transform="matrix(1 0 0 1 0.0003 -0.0003)" id="Layer_1">
<path style="stroke: none; stroke-width: 1; stroke-dasharray: none; stroke-linecap: butt; stroke-dashoffset: 0; stroke-linejoin: miter; stroke-miterlimit: 4; is-custom-font: none; font-file-url: none; fill: rgb(58,127,13); fill-rule: nonzero; opacity: 1;" transform=" translate(-252.0627, -252.0622)" d="M 339.772 0 c 0 0 44.536 108.954 -146.337 182.138 C 89.719 221.893 10.059 323.789 105.173 481.193 c 7.877 -70.357 41.653 -225.485 186.888 -260.884 c 0 0 -135.176 50.546 -147.117 279.347 c 69.459 9.752 232.361 16.305 280.726 -125.062 C 489.536 187.817 339.772 0 339.772 0 z" stroke-linecap="round"/>
</g>
		<g transform="matrix(1 0 0 1 -13.4783 -2.7105)" id="Layer_1">
<path style="stroke: none; stroke-width: 1; stroke-dasharray: none; stroke-linecap: butt; stroke-dashoffset: 0; stroke-linejoin: miter; stroke-miterlimit: 4; is-custom-font: none; font-file-url: none; fill: rgb(73,160,16); fill-rule: nonzero; opacity: 1;" transform=" translate(-238.5841, -249.352)" d="M 145.007 498.704 c 147.456 -58.849 254.748 -196.71 269.556 -361.283 C 384.418 56.107 339.772 0 339.772 0 s 44.536 108.954 -146.337 182.138 C 89.719 221.893 10.059 323.789 105.173 481.193 c 7.877 -70.357 41.653 -225.485 186.888 -260.884 C 292.053 220.31 157.279 270.73 145.007 498.704 z" stroke-linecap="round"/>
</g>
		<g transform="matrix(1 0 0 1 -161.6035 -80.0775)" id="Layer_1">
<circle style="stroke: none; stroke-width: 1; stroke-dasharray: none; stroke-linecap: butt; stroke-dashoffset: 0; stroke-linejoin: miter; stroke-miterlimit: 4; is-custom-font: none; font-file-url: none; fill: rgb(58,127,13); fill-rule: nonzero; opacity: 1;" cx="0" cy="0" r="13.785"/>
</g>
		<g transform="matrix(1 0 0 1 -118.2805 -93.8625)" id="Layer_1">
<circle style="stroke: none; stroke-width: 1; stroke-dasharray: none; stroke-linecap: butt; stroke-dashoffset: 0; stroke-linejoin: miter; stroke-miterlimit: 4; is-custom-font: none; font-file-url: none; fill: rgb(73,160,16); fill-rule: nonzero; opacity: 1;" cx="0" cy="0" r="9.846"/>
</g>
		<g transform="matrix(1 0 0 1 -127.1415 -187.4005)" id="Layer_1">
<circle style="stroke: none; stroke-width: 1; stroke-dasharray: none; stroke-linecap: butt; stroke-dashoffset: 0; stroke-linejoin: miter; stroke-miterlimit: 4; is-custom-font: none; font-file-url: none; fill: rgb(73,160,16); fill-rule: nonzero; opacity: 1;" cx="0" cy="0" r="24.615"/>
</g>
		<g transform="matrix(1 0 0 1 -51.3265 -131.2775)" id="Layer_1">
<circle style="stroke: none; stroke-width: 1; stroke-dasharray: none; stroke-linecap: butt; stroke-dashoffset: 0; stroke-linejoin: miter; stroke-miterlimit: 4; is-custom-font: none; font-file-url: none; fill: rgb(73,160,16); fill-rule: nonzero; opacity: 1;" cx="0" cy="0" r="7.877"/>
</g>
		<g transform="matrix(1 0 0 1 14.6505 -175.5855)" id="Layer_1">
<circle style="stroke: none; stroke-width: 1; stroke-dasharray: none; stroke-linecap: butt; stroke-dashoffset: 0; stroke-linejoin: miter; stroke-miterlimit: 4; is-custom-font: none; font-file-url: none; fill: rgb(73,160,16); fill-rule: nonzero; opacity: 1;" cx="0" cy="0" r="22.646"/>
</g>
</g>
</g>
</svg>